<?xml version="1.0" encoding="utf-8"?>
<!-- Generator: Adobe Illustrator 23.0.2, SVG Export Plug-In . SVG Version: 6.00 Build 0)  -->
<svg version="1.1" id="Layer_1" xmlns="http://www.w3.org/2000/svg" xmlns:xlink="http://www.w3.org/1999/xlink" x="0px" y="0px"
	 viewBox="0 0 366 111" enable-background="new 0 0 366 111" xml:space="preserve">
<g>
	<path fill="#AE88D2" d="M121.7,71c2.6,1.7,7.2,3.5,11.6,3.5c6.4,0,9.4-3.2,9.4-7.2c0-4.2-2.5-6.5-9-8.9
		c-8.7-3.1-12.8-7.9-12.8-13.7c0-7.8,6.3-14.2,16.7-14.2c4.9,0,9.2,1.4,11.9,3l-2.2,6.4c-1.9-1.2-5.4-2.8-9.9-2.8
		c-5.2,0-8.1,3-8.1,6.6c0,4,2.9,5.8,9.2,8.2c8.4,3.2,12.7,7.4,12.7,14.6c0,8.5-6.6,14.5-18.1,14.5c-5.3,0-10.2-1.3-13.6-3.3
		L121.7,71z"/>
	<path fill="#AE88D2" d="M162.5,9h8.8v30.2h0.2c1.4-2.5,3.6-4.7,6.3-6.2c2.6-1.5,5.7-2.5,9-2.5c6.5,0,16.9,4,16.9,20.7V80h-8.8V52.2
		c0-7.8-2.9-14.4-11.2-14.4c-5.7,0-10.2,4-11.8,8.8c-0.5,1.2-0.6,2.5-0.6,4.2V80h-8.8V9z"/>
	<path fill="#AE88D2" d="M244.8,80l-0.7-6.1h-0.3c-2.7,3.8-7.9,7.2-14.8,7.2c-9.8,0-14.8-6.9-14.8-13.9c0-11.7,10.4-18.1,29.1-18v-1
		c0-4-1.1-11.2-11-11.2c-4.5,0-9.2,1.4-12.6,3.6l-2-5.8c4-2.6,9.8-4.3,15.9-4.3c14.8,0,18.4,10.1,18.4,19.8v18.1
		c0,4.2,0.2,8.3,0.8,11.6H244.8z M243.5,55.3c-9.6-0.2-20.5,1.5-20.5,10.9c0,5.7,3.8,8.4,8.3,8.4c6.3,0,10.3-4,11.7-8.1
		c0.3-0.9,0.5-1.9,0.5-2.8V55.3z"/>
	<path fill="#AE88D2" d="M266.2,47.4c0-6.2-0.2-11.2-0.4-15.8h7.9l0.4,8.3h0.2c3.6-5.9,9.3-9.4,17.2-9.4c11.7,0,20.5,9.9,20.5,24.6
		c0,17.4-10.6,26-22,26c-6.4,0-12-2.8-14.9-7.6h-0.2v26.3h-8.7V47.4z M274.9,60.3c0,1.3,0.2,2.5,0.4,3.6c1.6,6.1,6.9,10.3,13.2,10.3
		c9.3,0,14.7-7.6,14.7-18.7c0-9.7-5.1-18-14.4-18c-6,0-11.6,4.3-13.3,10.9c-0.3,1.1-0.6,2.4-0.6,3.6V60.3z"/>
	<path fill="#AE88D2" d="M328,57.4c0.2,11.9,7.8,16.8,16.6,16.8c6.3,0,10.1-1.1,13.4-2.5l1.5,6.3c-3.1,1.4-8.4,3-16.1,3
		c-14.9,0-23.8-9.8-23.8-24.4c0-14.6,8.6-26.1,22.7-26.1c15.8,0,20,13.9,20,22.8c0,1.8-0.2,3.2-0.3,4.1H328z M353.8,51.1
		c0.1-5.6-2.3-14.3-12.2-14.3c-8.9,0-12.8,8.2-13.5,14.3H353.8z"/>
</g>
<path fill="#AE88D2" d="M2.4,62.8C7.8,26.3,59.1-9.3,88.1,6.4c22.4,12.1,32.4,55.5,12.5,81.5c-23.6,31.1-78.8,23.8-94.1,0
	C0.2,78,1.8,66.6,2.4,62.8z"/>
<g>
	<path fill="#FFFFFF" d="M30.6,46.7c0-5.7-0.1-10.6-0.4-15.1h7.7l0.3,9.5h0.4c2.2-6.5,7.5-10.6,13.4-10.6c1,0,1.7,0.1,2.5,0.3v8.3
		c-0.9-0.2-1.8-0.3-3-0.3c-6.2,0-10.6,4.7-11.8,11.3c-0.2,1.2-0.4,2.6-0.4,4.1V80h-8.7V46.7z"/>
	<path fill="#FFFFFF" d="M67.2,57.4c0.2,11.9,7.8,16.8,16.6,16.8c6.3,0,10.1-1.1,13.4-2.5l1.5,6.3c-3.1,1.4-8.4,3-16.1,3
		c-14.9,0-23.8-9.8-23.8-24.4s8.6-26.1,22.7-26.1c15.8,0,20,13.9,20,22.8c0,1.8-0.2,3.2-0.3,4.1H67.2z M93,51.1
		c0.1-5.6-2.3-14.3-12.2-14.3c-8.9,0-12.8,8.2-13.5,14.3H93z"/>
</g>
</svg>
